<svg version="1.1" id="Layer_1" xmlns="http://www.w3.org/2000/svg" xmlns:xlink="http://www.w3.org/1999/xlink" x="0px" y="0px"
	 width="100%" viewBox="0 0 390 419" enable-background="new 0 0 390 419" xml:space="preserve">
<path fill="#60717E" opacity="1.000000" stroke="none" 
	d="
M368.000000,420.000000 
	C324.979095,420.000000 281.958221,420.000000 238.362839,419.675781 
	C236.892746,418.176025 236.164291,416.809937 235.075317,415.854858 
	C225.447998,407.411133 215.652802,399.156677 206.105606,390.624268 
	C185.592697,372.291656 166.622528,352.481567 149.256897,331.118164 
	C144.907166,325.767029 139.809372,321.023956 134.968567,315.539703 
	C134.881760,304.535248 134.881760,293.992523 134.881760,282.968475 
	C127.768105,282.968475 121.344528,282.968475 114.653564,282.772858 
	C110.929710,276.996246 107.473244,271.415222 104.451340,265.714844 
	C122.802750,265.566589 140.719666,265.493866 158.636414,265.525299 
	C169.410553,265.544220 180.184433,265.725494 190.994568,266.156342 
	C193.307709,270.091766 195.115921,274.128906 197.938736,277.247742 
	C214.612961,295.670441 231.394714,314.000732 248.443848,332.075775 
	C252.703766,336.592010 258.080536,340.054810 263.024353,344.464325 
	C263.104675,365.839386 263.104675,386.751892 263.104675,407.693787 
	C283.144897,407.693787 302.377686,407.693787 322.171082,407.693787 
	C322.171082,402.258942 322.171082,397.131531 322.519897,392.057007 
	C328.633362,395.085968 334.398010,398.062073 340.276917,401.481995 
	C340.532990,403.832672 340.674774,405.739532 340.855469,408.169617 
	C345.151489,408.169617 349.074005,408.169617 353.129028,408.476440 
	C355.125427,410.001221 357.081635,411.100616 358.832977,412.463226 
	C361.953949,414.891571 364.951080,417.479065 368.000000,420.000000 
z"/>
<path fill="#697985" opacity="1.000000" stroke="none" 
	d="
M225.000000,0.999999 
	C252.687561,1.000000 280.375122,1.000000 308.536133,1.433123 
	C310.668945,10.190598 312.328308,18.514952 313.532806,26.897072 
	C309.767242,26.954838 306.456543,26.954838 302.963379,26.954838 
	C302.963379,81.525177 302.963379,135.678131 302.963379,189.773987 
	C309.526215,189.773987 315.593079,189.773987 322.003387,189.773987 
	C322.003387,187.244308 322.001099,185.102829 322.003754,182.961334 
	C322.055664,141.312286 322.108124,99.663239 322.452576,58.179077 
	C325.011719,63.264782 327.085938,68.286407 329.593170,73.081596 
	C332.946472,79.495049 336.635529,85.732964 340.281433,92.497025 
	C340.416656,148.144531 340.452301,203.341278 340.471893,258.538025 
	C340.472198,259.358734 340.273468,260.179504 339.823669,260.901520 
	C337.339294,259.294250 335.106842,257.899048 333.078522,256.252411 
	C329.377777,253.248108 325.797943,250.094803 322.100983,246.538940 
	C322.034302,233.558960 322.034302,221.043686 322.034302,207.946198 
	C308.468597,207.946198 295.733124,207.946198 282.851929,207.651154 
	C281.951630,206.488815 281.031769,205.716431 280.470001,204.738373 
	C277.427307,199.440887 270.852539,196.270782 271.451355,188.972794 
	C275.173126,188.889053 278.441986,188.889053 281.734314,188.889053 
	C281.734314,134.492096 281.734314,80.868324 281.734314,27.364054 
	C275.373962,27.364054 269.471832,27.364054 263.153595,27.364054 
	C263.153595,29.871105 263.157959,32.005070 263.152954,34.139008 
	C263.084259,63.425797 263.014221,92.712585 262.667358,121.816605 
	C256.615356,108.232925 250.836533,94.833733 245.068573,81.429863 
	C243.718063,78.291496 242.147537,75.217865 241.129456,71.972885 
	C239.261169,66.017921 237.566406,59.997066 236.092209,53.932480 
	C233.607651,43.711422 231.309402,33.444157 229.035034,23.173685 
	C228.574814,21.095387 228.727448,18.885771 228.321365,16.790213 
	C227.298248,11.510531 226.117538,6.261386 225.000000,0.999999 
z"/>
<path fill="#647581" opacity="1.000000" stroke="none" 
	d="
M64.000000,1.000000 
	C99.354225,1.000000 134.708450,1.000000 170.535553,1.434869 
	C173.114960,15.657620 174.592606,29.580173 177.508148,43.194809 
	C180.319824,56.324459 184.398682,69.202148 188.305313,82.073845 
	C196.241806,108.223221 206.708191,133.324051 219.980896,157.251709 
	C222.121643,161.110962 223.343124,165.480118 224.527100,169.690063 
	C199.707886,169.713196 175.351105,169.659821 150.939529,169.249649 
	C146.449249,158.367111 142.047531,147.826782 137.521317,137.340195 
	C137.108841,136.384567 135.897629,135.773682 134.969803,134.541000 
	C134.882263,98.548584 134.882263,63.017868 134.882263,26.831602 
	C111.468094,26.831602 88.729500,26.831602 65.968384,26.426342 
	C65.297249,17.680719 64.648628,9.340360 64.000000,1.000000 
z"/>
<path fill="#5D6E7B" opacity="1.000000" stroke="none" 
	d="
M63.531342,1.000000 
	C64.648628,9.340360 65.297249,17.680719 65.503937,26.488523 
	C56.803791,26.955967 48.545582,26.955967 39.990887,26.955967 
	C39.990887,29.839914 39.990791,31.984186 39.990898,34.128460 
	C39.995209,120.925278 40.000771,207.722107 39.996628,294.518921 
	C39.996525,296.681061 39.889027,298.843170 39.520012,300.889404 
	C37.171116,298.244720 34.707458,295.950409 33.166420,293.148621 
	C23.841263,276.194611 14.777534,259.096832 5.463441,242.136597 
	C4.536915,240.449478 2.514034,239.364471 1.000000,238.000000 
	C1.000000,159.115341 1.000000,80.230675 1.000000,1.000000 
	C21.686275,1.000000 42.374477,1.000000 63.531342,1.000000 
z"/>
<path fill="#6A7A85" opacity="1.000000" stroke="none" 
	d="
M224.989532,169.613571 
	C223.343124,165.480118 222.121643,161.110962 219.980896,157.251709 
	C206.708191,133.324051 196.241806,108.223221 188.305313,82.073845 
	C184.398682,69.202148 180.319824,56.324459 177.508148,43.194809 
	C174.592606,29.580173 173.114960,15.657620 171.004211,1.434869 
	C188.687561,1.000000 206.375122,1.000000 224.531342,0.999999 
	C226.117538,6.261386 227.298248,11.510531 228.321365,16.790213 
	C228.727448,18.885771 228.574814,21.095387 229.035034,23.173685 
	C231.309402,33.444157 233.607651,43.711422 236.092209,53.932480 
	C237.566406,59.997066 239.261169,66.017921 241.129456,71.972885 
	C242.147537,75.217865 243.718063,78.291496 245.068573,81.429863 
	C250.836533,94.833733 256.615356,108.232925 262.748840,122.279167 
	C263.107513,138.443604 263.107513,153.962708 263.107513,169.613571 
	C249.846558,169.613571 237.418060,169.613571 224.989532,169.613571 
z"/>
<path fill="#596B78" opacity="1.000000" stroke="none" 
	d="
M1.000000,238.468658 
	C2.514034,239.364471 4.536915,240.449478 5.463441,242.136597 
	C14.777534,259.096832 23.841263,276.194611 33.166420,293.148621 
	C34.707458,295.950409 37.171116,298.244720 39.584816,301.353821 
	C39.961220,337.173279 39.961220,372.412506 39.961220,408.168243 
	C67.095703,408.168243 93.545143,408.168243 120.048103,408.512390 
	C121.053429,410.368744 121.932411,411.933380 122.973907,413.381104 
	C124.591148,415.629181 126.319023,417.797729 128.000000,420.000000 
	C85.726669,420.000000 43.453335,420.000000 1.000000,420.000000 
	C1.000000,359.645905 1.000000,299.291595 1.000000,238.468658 
z"/>
<path fill="#72818C" opacity="1.000000" stroke="none" 
	d="
M313.987671,26.839302 
	C312.328308,18.514952 310.668945,10.190598 309.004791,1.433123 
	C336.282990,1.000000 363.566010,1.000000 391.000000,1.000000 
	C391.000000,52.687466 391.000000,104.375076 390.676758,156.424438 
	C389.639954,156.381348 388.733826,156.137161 388.241699,155.547501 
	C381.088226,146.975662 374.069733,138.289810 366.829865,129.792328 
	C364.690826,127.281738 361.964203,125.271706 359.489929,122.561722 
	C359.472961,90.574272 359.472961,59.057381 359.472961,26.839300 
	C343.819397,26.839300 328.903534,26.839300 313.987671,26.839302 
z"/>
<path fill="#5D6E7B" opacity="1.000000" stroke="none" 
	d="
M128.468658,420.000000 
	C126.319023,417.797729 124.591148,415.629181 122.973907,413.381104 
	C121.932411,411.933380 121.053429,410.368744 120.510269,408.442444 
	C125.361839,408.028381 129.804779,408.028381 134.830704,408.028381 
	C134.830704,405.560883 134.826324,403.619019 134.831360,401.677185 
	C134.905304,373.118591 134.980484,344.560028 135.055374,316.001434 
	C139.809372,321.023956 144.907166,325.767029 149.256897,331.118164 
	C166.622528,352.481567 185.592697,372.291656 206.105606,390.624268 
	C215.652802,399.156677 225.447998,407.411133 235.075317,415.854858 
	C236.164291,416.809937 236.892746,418.176025 237.894180,419.675781 
	C201.645767,420.000000 165.291550,420.000000 128.468658,420.000000 
z"/>
<path fill="#6A7A85" opacity="1.000000" stroke="none" 
	d="
M359.506866,123.032288 
	C361.964203,125.271706 364.690826,127.281738 366.829865,129.792328 
	C374.069733,138.289810 381.088226,146.975662 388.241699,155.547501 
	C388.733826,156.137161 389.639954,156.381348 390.676758,156.893097 
	C391.000000,196.354233 391.000000,235.708450 390.674377,275.425110 
	C382.417908,269.778168 374.554657,263.675690 366.506439,257.827820 
	C364.601654,256.443817 362.075500,255.915024 359.718628,254.536942 
	C359.570374,210.398117 359.538605,166.715195 359.506866,123.032288 
z"/>
<path fill="#667682" opacity="1.000000" stroke="none" 
	d="
M359.835144,254.992859 
	C362.075500,255.915024 364.601654,256.443817 366.506439,257.827820 
	C374.554657,263.675690 382.417908,269.778168 390.674377,275.893799 
	C391.000000,303.354218 391.000000,330.708466 390.633057,358.486816 
	C383.990479,355.594330 377.732483,352.243744 371.432770,348.973602 
	C367.489929,346.926910 363.484192,345.001373 359.501160,342.551239 
	C359.496887,323.827118 359.459564,305.573090 359.513916,287.319366 
	C359.545990,276.543671 359.723206,265.768372 359.835144,254.992859 
z"/>
<path fill="#637380" opacity="1.000000" stroke="none" 
	d="
M359.506653,343.021484 
	C363.484192,345.001373 367.489929,346.926910 371.432770,348.973602 
	C377.732483,352.243744 383.990479,355.594330 390.633057,358.955444 
	C391.000000,379.226807 391.000000,399.453613 391.000000,420.000000 
	C383.648895,420.000000 376.293182,420.000000 368.468750,420.000000 
	C364.951080,417.479065 361.953949,414.891571 358.832977,412.463226 
	C357.081635,411.100616 355.125427,410.001221 353.577881,408.408295 
	C355.639801,408.033356 357.385315,408.033356 359.506653,408.033356 
	C359.506653,385.822296 359.506653,364.421906 359.506653,343.021484 
z"/>
<path fill="#F3F4F4" opacity="1.000000" stroke="none" 
	d="
M282.997681,207.946198 
	C295.733124,207.946198 308.468597,207.946198 322.034302,207.946198 
	C322.034302,221.043686 322.034302,233.558960 322.037781,247.003632 
	C322.083710,274.957306 322.126190,301.981567 322.105194,329.470337 
	C322.084869,350.624603 322.127960,371.314362 322.171082,392.004150 
	C322.171082,397.131531 322.171082,402.258942 322.171082,407.693787 
	C302.377686,407.693787 283.144897,407.693787 263.104675,407.693787 
	C263.104675,386.751892 263.104675,365.839386 263.111023,344.002533 
	C263.117401,317.447479 263.117401,291.816772 263.117401,265.499298 
	C257.127106,265.499298 251.510590,265.473694 245.894379,265.504028 
	C227.582321,265.602966 209.270401,265.722321 190.958420,265.833801 
	C180.184433,265.725494 169.410553,265.544220 158.636414,265.525299 
	C140.719666,265.493866 122.802750,265.566589 104.039688,265.601562 
	C101.271759,265.607635 99.350052,265.607635 96.964462,265.607635 
	C96.964462,302.443146 96.964462,338.518707 96.964462,374.653198 
	C90.099655,374.653198 83.709885,374.653198 77.318687,374.653198 
	C77.318687,331.415497 77.318687,288.523254 77.318687,244.942337 
	C91.425011,244.942337 105.211067,244.942337 119.458755,245.030502 
	C149.334732,245.131836 178.749100,245.170807 208.163422,245.148605 
	C226.107529,245.135056 244.051559,245.027313 262.456970,245.051147 
	C268.026947,245.161316 273.146576,245.392288 278.240112,245.125351 
	C281.366791,244.961502 282.378662,246.272186 282.305420,249.498215 
	C282.233643,295.841400 282.233643,341.723267 282.233643,387.664337 
	C289.266968,387.664337 295.655426,387.664337 302.505127,387.664337 
	C302.505127,385.193817 302.505585,383.055786 302.505096,380.917755 
	C302.496765,345.624512 302.495941,310.331299 302.467285,275.038055 
	C302.464600,271.716431 302.286469,268.394897 302.314026,264.614594 
	C302.438232,251.927689 302.438232,239.699524 302.438232,227.370865 
	C284.478638,227.370865 267.222900,227.370865 249.505524,227.299454 
	C210.161682,227.205841 171.279465,227.171707 132.397263,227.172180 
	C125.258041,227.172272 118.118828,227.312729 110.518326,227.308960 
	C99.177864,227.229523 88.298698,227.229523 77.093468,227.229523 
	C77.093468,220.437851 77.093468,214.339859 77.555344,208.212921 
	C101.010933,208.103012 124.004646,208.022034 147.460297,208.026871 
	C167.280701,208.056076 186.639160,207.999451 206.459702,208.027985 
	C232.280411,208.057480 257.639038,208.001846 282.997681,207.946198 
z"/>
<path fill="#F4F4F4" opacity="1.000000" stroke="none" 
	d="
M134.968567,315.539703 
	C134.980484,344.560028 134.905304,373.118591 134.831360,401.677185 
	C134.826324,403.619019 134.830704,405.560883 134.830704,408.028381 
	C129.804779,408.028381 125.361839,408.028381 120.456741,408.098328 
	C93.545143,408.168243 67.095703,408.168243 39.961220,408.168243 
	C39.961220,372.412506 39.961220,337.173279 39.896416,301.469696 
	C39.889027,298.843170 39.996525,296.681061 39.996628,294.518921 
	C40.000771,207.722107 39.995209,120.925278 39.990898,34.128460 
	C39.990791,31.984186 39.990887,29.839914 39.990887,26.955967 
	C48.545582,26.955967 56.803791,26.955967 65.526451,26.893784 
	C88.729500,26.831602 111.468094,26.831602 134.882263,26.831602 
	C134.882263,63.017868 134.882263,98.548584 134.888611,135.002686 
	C134.894958,141.501923 134.894958,147.077789 134.894958,152.595642 
	C127.682014,152.595642 121.400337,152.595642 114.459801,152.595642 
	C114.459801,117.488586 114.459801,82.620712 114.459801,47.481964 
	C95.900894,47.481964 78.006805,47.481964 59.509697,47.481964 
	C59.509697,49.577385 59.509956,51.370747 59.509655,53.164104 
	C59.503288,91.135170 59.492523,129.106232 59.505028,167.077301 
	C59.505573,168.731232 59.719639,170.385086 59.719738,172.491821 
	C59.564842,243.362335 59.522675,313.780029 59.499805,384.197723 
	C59.499435,385.330963 59.735161,386.464264 59.882145,387.791016 
	C78.002762,387.791016 95.934219,387.791016 114.510689,387.791016 
	C114.510689,385.709259 114.510979,383.754578 114.510658,381.799866 
	C114.505501,350.835632 114.492424,319.871429 114.513336,288.907196 
	C114.514679,286.927521 114.778984,284.948059 114.920944,282.968475 
	C121.344528,282.968475 127.768105,282.968475 134.881760,282.968475 
	C134.881760,293.992523 134.881760,304.535248 134.968567,315.539703 
z"/>
<path fill="#F4F4F4" opacity="1.000000" stroke="none" 
	d="
M359.501160,342.551239 
	C359.506653,364.421906 359.506653,385.822296 359.506653,408.033356 
	C357.385315,408.033356 355.639801,408.033356 353.445404,408.101501 
	C349.074005,408.169617 345.151489,408.169617 340.855469,408.169617 
	C340.674774,405.739532 340.532990,403.832672 340.396362,401.024750 
	C340.323578,379.762085 340.245636,359.400452 340.286285,338.595886 
	C340.439270,327.198792 340.533630,316.244415 340.493347,305.290527 
	C340.439087,290.526917 340.281128,275.763641 340.167664,261.000244 
	C340.273468,260.179504 340.472198,259.358734 340.471893,258.538025 
	C340.452301,203.341278 340.416656,148.144531 340.403137,92.039627 
	C340.423828,76.591064 340.423828,62.050663 340.423828,47.435406 
	C334.025208,47.435406 328.287903,47.435406 322.160461,47.435406 
	C322.160461,51.152336 322.160461,54.583260 322.160461,58.014187 
	C322.108124,99.663239 322.055664,141.312286 322.003754,182.961334 
	C322.001099,185.102829 322.003387,187.244308 322.003387,189.773987 
	C315.593079,189.773987 309.526215,189.773987 302.963379,189.773987 
	C302.963379,135.678131 302.963379,81.525177 302.963379,26.954838 
	C306.456543,26.954838 309.767242,26.954838 313.532837,26.897068 
	C328.903534,26.839300 343.819397,26.839300 359.472961,26.839300 
	C359.472961,59.057381 359.472961,90.574272 359.489929,122.561722 
	C359.538605,166.715195 359.570374,210.398117 359.718628,254.536957 
	C359.723206,265.768372 359.545990,276.543671 359.513916,287.319366 
	C359.459564,305.573090 359.496887,323.827118 359.501160,342.551239 
z"/>
<path fill="#5D6E7B" opacity="1.000000" stroke="none" 
	d="
M114.653564,282.772858 
	C114.778984,284.948059 114.514679,286.927521 114.513336,288.907196 
	C114.492424,319.871429 114.505501,350.835632 114.510658,381.799866 
	C114.510979,383.754578 114.510689,385.709259 114.510689,387.791016 
	C95.934219,387.791016 78.002762,387.791016 59.882145,387.791016 
	C59.735161,386.464264 59.499435,385.330963 59.499805,384.197723 
	C59.522675,313.780029 59.564842,243.362335 60.006355,172.588318 
	C62.181160,175.304443 64.238693,178.250504 65.674095,181.473618 
	C69.620102,190.334213 73.305153,199.311020 77.093468,208.241852 
	C77.093468,214.339859 77.093468,220.437851 77.093468,227.229523 
	C88.298698,227.229523 99.177864,227.229523 110.578239,227.650772 
	C111.534851,229.144867 111.917191,230.243027 112.414848,231.286179 
	C114.590698,235.846939 116.799980,240.391739 118.997131,244.942337 
	C105.211067,244.942337 91.425011,244.942337 77.318687,244.942337 
	C77.318687,288.523254 77.318687,331.415497 77.318687,374.653198 
	C83.709885,374.653198 90.099655,374.653198 96.964462,374.653198 
	C96.964462,338.518707 96.964462,302.443146 96.964462,265.607635 
	C99.350052,265.607635 101.271759,265.607635 103.605125,265.720947 
	C107.473244,271.415222 110.929710,276.996246 114.653564,282.772858 
z"/>
<path fill="#647581" opacity="1.000000" stroke="none" 
	d="
M190.994568,266.156372 
	C209.270401,265.722321 227.582321,265.602966 245.894379,265.504028 
	C251.510590,265.473694 257.127106,265.499298 263.117401,265.499298 
	C263.117401,291.816772 263.117401,317.447479 263.030701,343.539978 
	C258.080536,340.054810 252.703766,336.592010 248.443848,332.075775 
	C231.394714,314.000732 214.612961,295.670441 197.938736,277.247742 
	C195.115921,274.128906 193.307709,270.091766 190.994568,266.156372 
z"/>
<path fill="#637380" opacity="1.000000" stroke="none" 
	d="
M340.167694,339.038849 
	C340.245636,359.400452 340.323578,379.762085 340.282043,400.580933 
	C334.398010,398.062073 328.633362,395.085968 322.519897,392.057007 
	C322.127960,371.314362 322.084869,350.624603 322.438416,329.565063 
	C324.981049,330.366852 327.146088,331.505096 329.268799,332.717407 
	C332.915680,334.800171 336.536133,336.929230 340.167694,339.038849 
z"/>
<path fill="#F3F3F3" opacity="1.000000" stroke="none" 
	d="
M224.527115,169.690063 
	C237.418060,169.613571 249.846558,169.613571 263.107513,169.613571 
	C263.107513,153.962708 263.107513,138.443604 263.026031,122.461945 
	C263.014221,92.712585 263.084259,63.425797 263.152954,34.139008 
	C263.157959,32.005070 263.153595,29.871105 263.153595,27.364054 
	C269.471832,27.364054 275.373962,27.364054 281.734314,27.364054 
	C281.734314,80.868324 281.734314,134.492096 281.734314,188.889053 
	C278.441986,188.889053 275.173126,188.889053 270.988647,188.893234 
	C245.381485,188.951569 220.689941,189.005707 195.535675,188.980469 
	C176.381516,188.954575 157.690063,189.008072 138.536194,188.980255 
	C118.115189,188.898956 98.156624,188.898956 77.840240,188.898956 
	C77.840240,146.758331 77.840240,105.061157 77.840240,63.343582 
	C84.366257,63.343582 90.603416,63.343582 97.183189,63.343582 
	C97.183189,65.841072 97.179787,67.984772 97.183693,70.128456 
	C97.243752,103.092476 97.304764,136.056503 97.328491,169.218567 
	C97.291443,169.416611 97.572266,169.705383 97.572266,169.705383 
	C97.572266,169.705383 97.968811,169.634445 98.434441,169.706543 
	C116.264816,169.721252 133.629562,169.663849 150.994308,169.606445 
	C175.351105,169.659821 199.707886,169.713196 224.527115,169.690063 
z"/>
<path fill="#667682" opacity="1.000000" stroke="none" 
	d="
M340.286285,338.595886 
	C336.536133,336.929230 332.915680,334.800171 329.268799,332.717407 
	C327.146088,331.505096 324.981049,330.366852 322.501831,329.100555 
	C322.126190,301.981567 322.083710,274.957306 322.104462,247.468353 
	C325.797943,250.094803 329.377777,253.248108 333.078522,256.252411 
	C335.106842,257.899048 337.339294,259.294250 339.823669,260.901520 
	C340.281128,275.763641 340.439087,290.526917 340.493347,305.290527 
	C340.533630,316.244415 340.439270,327.198792 340.286285,338.595886 
z"/>
<path fill="#667682" opacity="1.000000" stroke="none" 
	d="
M195.998398,189.059845 
	C220.689941,189.005707 245.381485,188.951569 270.535736,188.976974 
	C270.852539,196.270782 277.427307,199.440887 280.470001,204.738373 
	C281.031769,205.716431 281.951630,206.488815 282.851929,207.651154 
	C257.639038,208.001846 232.280411,208.057480 206.352081,207.698181 
	C202.521042,201.208801 199.259720,195.134323 195.998398,189.059845 
z"/>
<path fill="#72818C" opacity="1.000000" stroke="none" 
	d="
M322.452576,58.179077 
	C322.160461,54.583260 322.160461,51.152336 322.160461,47.435406 
	C328.287903,47.435406 334.025208,47.435406 340.423828,47.435406 
	C340.423828,62.050663 340.423828,76.591064 340.302124,91.588852 
	C336.635529,85.732964 332.946472,79.495049 329.593170,73.081596 
	C327.085938,68.286407 325.011719,63.264782 322.452576,58.179077 
z"/>
<path fill="#60717E" opacity="1.000000" stroke="none" 
	d="
M150.939529,169.249664 
	C133.629562,169.663849 116.264816,169.721252 98.358116,169.582184 
	C97.693375,169.230133 97.543175,169.108414 97.365547,169.020523 
	C97.304764,136.056503 97.243752,103.092476 97.183693,70.128456 
	C97.179787,67.984772 97.183189,65.841072 97.183189,63.343582 
	C90.603416,63.343582 84.366257,63.343582 77.840240,63.343582 
	C77.840240,105.061157 77.840240,146.758331 77.840240,188.898956 
	C98.156624,188.898956 118.115189,188.898956 138.582794,189.347198 
	C141.727341,195.843964 144.362854,201.892487 146.998367,207.941040 
	C124.004646,208.022034 101.010933,208.103012 77.555344,208.212921 
	C73.305153,199.311020 69.620102,190.334213 65.674095,181.473618 
	C64.238693,178.250504 62.181160,175.304443 60.120857,172.135483 
	C59.719639,170.385086 59.505573,168.731232 59.505028,167.077301 
	C59.492523,129.106232 59.503288,91.135170 59.509655,53.164104 
	C59.509956,51.370747 59.509697,49.577385 59.509697,47.481964 
	C78.006805,47.481964 95.900894,47.481964 114.459801,47.481964 
	C114.459801,82.620712 114.459801,117.488586 114.459801,152.595642 
	C121.400337,152.595642 127.682014,152.595642 134.894958,152.595642 
	C134.894958,147.077789 134.894958,141.501923 134.976151,135.464386 
	C135.897629,135.773682 137.108841,136.384567 137.521317,137.340195 
	C142.047531,147.826782 146.449249,158.367111 150.939529,169.249664 
z"/>
<path fill="#637380" opacity="1.000000" stroke="none" 
	d="
M302.189819,265.073334 
	C302.286469,268.394897 302.464600,271.716431 302.467285,275.038055 
	C302.495941,310.331299 302.496765,345.624512 302.505096,380.917755 
	C302.505585,383.055786 302.505127,385.193817 302.505127,387.664337 
	C295.655426,387.664337 289.266968,387.664337 282.233643,387.664337 
	C282.233643,341.723267 282.233643,295.841400 282.633789,249.555206 
	C285.234833,250.806320 287.518433,252.363770 289.619171,254.137817 
	C293.861969,257.720703 298.005402,261.421295 302.189819,265.073334 
z"/>
<path fill="#637380" opacity="1.000000" stroke="none" 
	d="
M119.458755,245.030502 
	C116.799980,240.391739 114.590698,235.846939 112.414848,231.286179 
	C111.917191,230.243027 111.534851,229.144867 111.039520,227.730209 
	C118.118828,227.312729 125.258041,227.172272 132.397263,227.172180 
	C171.279465,227.171707 210.161682,227.205841 249.627136,227.599121 
	C254.138824,233.634094 258.067230,239.297989 261.995636,244.961868 
	C244.051559,245.027313 226.107529,245.135056 208.163422,245.148605 
	C178.749100,245.170807 149.334732,245.131836 119.458755,245.030502 
z"/>
<path fill="#637380" opacity="1.000000" stroke="none" 
	d="
M147.460297,208.026855 
	C144.362854,201.892487 141.727341,195.843964 139.045227,189.428497 
	C157.690063,189.008072 176.381516,188.954575 195.535675,188.980469 
	C199.259720,195.134323 202.521042,201.208801 205.889999,207.613052 
	C186.639160,207.999451 167.280701,208.056076 147.460297,208.026855 
z"/>
<path fill="#6E7D89" opacity="1.000000" stroke="none" 
	d="
M262.456970,245.051147 
	C258.067230,239.297989 254.138824,233.634094 250.088776,227.670532 
	C267.222900,227.370865 284.478638,227.370865 302.438232,227.370865 
	C302.438232,239.699524 302.438232,251.927689 302.314026,264.614594 
	C298.005402,261.421295 293.861969,257.720703 289.619171,254.137817 
	C287.518433,252.363770 285.234833,250.806320 282.705566,249.093903 
	C282.378662,246.272186 281.366791,244.961502 278.240112,245.125351 
	C273.146576,245.392288 268.026947,245.161316 262.456970,245.051147 
z"/>
<path fill="#6A7A85" opacity="1.000000" stroke="none" 
	d="
M97.328491,169.218567 
	C97.543175,169.108414 97.693375,169.230133 97.892487,169.510071 
	C97.968811,169.634445 97.572266,169.705383 97.572266,169.705383 
	C97.572266,169.705383 97.291443,169.416611 97.328491,169.218567 
z"/>
</svg>